<svg width="50" height="40" viewBox="0 0 50 40" fill="none" xmlns="http://www.w3.org/2000/svg">
<g clip-path="url(#clip0_641_882)">
<path d="M48.1264 0H33.1264C32.0964 0 30.6539 0.5975 29.9264 1.325L11.3289 19.9225C11.1547 20.0966 11.0164 20.3034 10.9221 20.5309C10.8278 20.7585 10.7793 21.0024 10.7793 21.2488C10.7793 21.4951 10.8278 21.739 10.9221 21.9666C11.0164 22.1941 11.1547 22.4009 11.3289 22.575L27.4264 38.6725C27.6005 38.8467 27.8073 38.985 28.0348 39.0793C28.2624 39.1736 28.5063 39.2221 28.7526 39.2221C28.999 39.2221 29.2429 39.1736 29.4705 39.0793C29.698 38.985 29.9048 38.8467 30.0789 38.6725L48.6764 20.075C49.4064 19.345 50.0014 17.905 50.0014 16.875V1.875C50.0014 1.37772 49.8039 0.900805 49.4522 0.549175C49.1006 0.197544 48.6237 0 48.1264 0ZM38.7514 15C38.2588 14.9998 37.771 14.9026 37.316 14.714C36.8609 14.5253 36.4474 14.2489 36.0992 13.9004C35.751 13.5519 35.4748 13.1383 35.2865 12.6831C35.0981 12.228 35.0012 11.7401 35.0014 11.2475C35.0016 10.7549 35.0988 10.2671 35.2874 9.81205C35.4761 9.35699 35.7525 8.94355 36.101 8.59533C36.4494 8.24711 36.8631 7.97093 37.3183 7.78257C37.7734 7.5942 38.2613 7.49734 38.7539 7.4975C39.7488 7.49783 40.7028 7.89337 41.4061 8.5971C42.1093 9.30083 42.5042 10.2551 42.5039 11.25C42.5036 12.2449 42.108 13.1989 41.4043 13.9022C40.7006 14.6054 39.7463 15.0003 38.7514 15Z" fill="#2324FA"/>
<path d="M5.0014 21.25L26.2514 0H23.1264C22.0964 0 20.6539 0.5975 19.9264 1.325L1.3289 19.9225C1.15466 20.0966 1.01644 20.3034 0.922138 20.5309C0.827835 20.7585 0.779297 21.0024 0.779297 21.2488C0.779297 21.4951 0.827835 21.739 0.922138 21.9666C1.01644 22.1941 1.15466 22.4009 1.3289 22.575L17.4264 38.6725C17.6005 38.8467 17.8073 38.985 18.0348 39.0793C18.2624 39.1736 18.5063 39.2221 18.7526 39.2221C18.999 39.2221 19.2429 39.1736 19.4705 39.0793C19.698 38.985 19.9048 38.8467 20.0789 38.6725L21.2539 37.4975L5.0014 21.25Z" fill="#2324FA"/>
</g>
<defs>
<clipPath id="clip0_641_882">
<rect width="50" height="40" fill="white"/>
</clipPath>
</defs>
</svg>
