<svg width="56" height="56" viewBox="0 0 56 56" fill="none" xmlns="http://www.w3.org/2000/svg">
<path d="M11.6671 11.6691C11.6673 11.2188 11.5372 10.7781 11.2925 10.4001C11.0478 10.0221 10.699 9.72294 10.2881 9.53877C10.6241 9.2751 11.0301 9.09543 11.4781 9.0301L36.6734 5.42977C37.3354 5.33515 38.0099 5.38389 38.6513 5.57268C39.2928 5.76147 39.8862 6.0859 40.3913 6.524C40.8965 6.9621 41.3016 7.50364 41.5792 8.11195C41.8568 8.72025 42.0005 9.38111 42.0004 10.0498V11.9631C41.2381 11.7671 40.4541 11.6683 39.6671 11.6691H11.6671ZM22.7504 30.3358C22.7504 28.9434 23.3035 27.608 24.2881 26.6235C25.2727 25.6389 26.608 25.0858 28.0004 25.0858C29.3928 25.0858 30.7282 25.6389 31.7127 26.6235C32.6973 27.608 33.2504 28.9434 33.2504 30.3358C33.2504 31.7282 32.6973 33.0635 31.7127 34.0481C30.7282 35.0326 29.3928 35.5858 28.0004 35.5858C26.608 35.5858 25.2727 35.0326 24.2881 34.0481C23.3035 33.0635 22.7504 31.7282 22.7504 30.3358Z" fill="white"/>
<path fill-rule="evenodd" clip-rule="evenodd" d="M41.9987 14.4019C44.717 15.3655 46.6654 17.9579 46.6654 21.0052V44.3385C46.6654 46.1951 45.9279 47.9755 44.6151 49.2883C43.3024 50.601 41.5219 51.3385 39.6654 51.3385H16.332C14.4755 51.3385 12.695 50.601 11.3823 49.2883C10.0695 47.9755 9.33203 46.1951 9.33203 44.3385V11.6719C9.33203 12.2907 9.57786 12.8842 10.0154 13.3218C10.453 13.7594 11.0465 14.0052 11.6654 14.0052H39.6654C40.482 14.0052 41.2684 14.1452 41.9987 14.4019ZM27.9987 21.5885C25.6781 21.5885 23.4525 22.5104 21.8115 24.1514C20.1706 25.7923 19.2487 28.0179 19.2487 30.3385C19.2487 32.6592 20.1706 34.8848 21.8115 36.5257C23.4525 38.1667 25.6781 39.0885 27.9987 39.0885C30.3193 39.0885 32.5449 38.1667 34.1859 36.5257C35.8268 34.8848 36.7487 32.6592 36.7487 30.3385C36.7487 28.0179 35.8268 25.7923 34.1859 24.1514C32.5449 22.5104 30.3193 21.5885 27.9987 21.5885ZM23.332 42.5885C22.8679 42.5885 22.4228 42.7729 22.0946 43.1011C21.7664 43.4293 21.582 43.8744 21.582 44.3385C21.582 44.8027 21.7664 45.2478 22.0946 45.576C22.4228 45.9042 22.8679 46.0885 23.332 46.0885H32.6654C33.1295 46.0885 33.5746 45.9042 33.9028 45.576C34.231 45.2478 34.4154 44.8027 34.4154 44.3385C34.4154 43.8744 34.231 43.4293 33.9028 43.1011C33.5746 42.7729 33.1295 42.5885 32.6654 42.5885H23.332Z" fill="white"/>
</svg>
