<svg width="241" height="61" viewBox="0 0 241 61" fill="none" xmlns="http://www.w3.org/2000/svg">
<g clip-path="url(#clip0_698_469)">
<path d="M67.2266 48.2784V26.9453H75.5452C77.4315 26.9453 79.0275 27.2356 80.3333 27.816C81.6392 28.3965 82.6548 29.2673 83.3803 30.3799C84.1057 31.4925 84.4443 32.847 84.4443 34.395C84.4443 35.9429 84.1057 37.249 83.3803 38.3617C82.6548 39.4743 81.6392 40.345 80.3333 40.9255C79.0275 41.506 77.4315 41.8446 75.5452 41.8446H68.9193L70.2735 40.3934V48.2784H67.2266ZM70.2735 40.6836L68.9193 39.1356H75.4485C77.3831 39.1356 78.8824 38.7003 79.898 37.8779C80.9137 37.0555 81.3973 35.8462 81.3973 34.3466C81.3973 32.847 80.9137 31.6376 79.898 30.8153C78.8824 29.9929 77.4315 29.5575 75.4485 29.5575H68.9193L70.2735 28.0095V40.6352V40.6836Z" fill="white"/>
<path d="M88.9424 48.2784V26.9453H97.2611C99.1473 26.9453 100.743 27.2356 102.049 27.816C103.355 28.3965 104.371 29.2673 105.096 30.3799C105.822 31.4925 106.16 32.847 106.16 34.395C106.16 35.9429 105.822 37.249 105.096 38.3617C104.371 39.4743 103.355 40.2966 102.049 40.9255C100.743 41.506 99.1473 41.7962 97.2611 41.7962H90.6351L91.9893 40.3934V48.2784H88.9424ZM91.9893 40.6836L90.6351 39.184H97.1643C99.0989 39.184 100.598 38.7486 101.614 37.9263C102.63 37.1039 103.113 35.8946 103.113 34.395C103.113 32.8954 102.63 31.686 101.614 30.8636C100.598 30.0413 99.1473 29.6059 97.1643 29.6059H90.6351L91.9893 28.0579V40.6836ZM103.21 48.2784L97.7931 40.5385H101.033L106.499 48.2784H103.162H103.21Z" fill="white"/>
<path d="M120.718 48.5195C119.073 48.5195 117.574 48.2292 116.171 47.6971C114.769 47.165 113.56 46.391 112.544 45.3752C111.528 44.4077 110.755 43.2467 110.174 41.8922C109.594 40.5861 109.304 39.1349 109.304 37.5869C109.304 36.0389 109.594 34.5877 110.174 33.2816C110.755 31.9755 111.528 30.8145 112.544 29.7986C113.56 28.8311 114.769 28.0572 116.123 27.4767C117.526 26.9445 119.025 26.6543 120.669 26.6543C122.314 26.6543 123.813 26.9445 125.167 27.4767C126.521 28.0088 127.731 28.7828 128.746 29.7503C129.762 30.7177 130.584 31.8787 131.116 33.2332C131.696 34.5393 131.938 35.9905 131.938 37.5869C131.938 39.1832 131.648 40.6345 131.116 41.9406C130.536 43.2467 129.762 44.4077 128.746 45.4235C127.731 46.391 126.521 47.165 125.167 47.6971C123.813 48.2292 122.314 48.5195 120.669 48.5195H120.718ZM120.718 45.8105C121.878 45.8105 122.991 45.617 124.006 45.1817C125.022 44.7947 125.893 44.2142 126.618 43.4402C127.344 42.6662 127.924 41.8438 128.359 40.828C128.795 39.8121 128.988 38.7479 128.988 37.5869C128.988 36.4259 128.795 35.3133 128.359 34.3458C127.924 33.33 127.344 32.4592 126.618 31.7336C125.893 31.008 125.022 30.4275 124.006 29.9921C122.991 29.6051 121.927 29.3633 120.718 29.3633C119.509 29.3633 118.396 29.5568 117.429 29.9921C116.413 30.3791 115.543 30.9596 114.769 31.7336C113.995 32.4592 113.415 33.33 113.028 34.3458C112.592 35.3617 112.399 36.4259 112.399 37.5869C112.399 38.7479 112.592 39.8605 113.028 40.828C113.463 41.8438 114.043 42.7146 114.769 43.4402C115.543 44.1658 116.413 44.7463 117.429 45.1817C118.445 45.5687 119.557 45.8105 120.718 45.8105Z" fill="white"/>
<path d="M133.099 48.2769L141.95 36.1833V38.5536L133.583 26.9922H137.065L143.691 36.0866H142.337L148.963 26.9922H152.3L143.981 38.4085V36.2317L152.832 48.3736H149.35L142.288 38.6504H143.643L136.678 48.3736H133.196L133.099 48.2769Z" fill="white"/>
<path d="M155.733 48.2784V26.9453H158.78V48.2784H155.733Z" fill="white"/>
<path d="M165.165 48.2784V26.9453H167.68L177.256 43.054H175.901L185.333 26.9453H187.847V48.2784H184.946V31.5409H185.623L177.207 45.6662H175.805L167.341 31.5409H168.115V48.2784H165.165Z" fill="white"/>
<path d="M194.28 48.2784V26.9453H197.327V48.2784H194.28Z" fill="white"/>
<path d="M207.967 48.2784V29.6059H200.664V26.9453H218.317V29.6059H211.014V48.2784H208.015H207.967Z" fill="white"/>
<path d="M229.489 48.2784V40.1031L230.166 41.9897L220.977 26.9453H224.217L231.907 39.6678H230.118L237.856 26.9453H240.855L231.714 41.9897L232.391 40.1031V48.2784H229.392H229.489Z" fill="white"/>
<path d="M34.0003 30.4276C36.9919 30.4276 39.4171 28.002 39.4171 25.0097C39.4171 22.0175 36.9919 19.5918 34.0003 19.5918C31.0087 19.5918 28.5835 22.0175 28.5835 25.0097C28.5835 28.002 31.0087 30.4276 34.0003 30.4276Z" fill="white"/>
<path d="M20.5062 37.9726C23.4978 37.9726 25.923 35.5469 25.923 32.5546C25.923 29.5624 23.4978 27.1367 20.5062 27.1367C17.5145 27.1367 15.0894 29.5624 15.0894 32.5546C15.0894 35.5469 17.5145 37.9726 20.5062 37.9726Z" fill="white"/>
<path d="M20.5062 24.3808C23.4978 24.3808 25.923 21.9551 25.923 18.9628C25.923 15.9706 23.4978 13.5449 20.5062 13.5449C17.5145 13.5449 15.0894 15.9706 15.0894 18.9628C15.0894 21.9551 17.5145 24.3808 20.5062 24.3808Z" fill="white"/>
<path d="M34.0003 16.8827C36.9919 16.8827 39.4171 14.457 39.4171 11.4648C39.4171 8.47256 36.9919 6.04688 34.0003 6.04688C31.0087 6.04688 28.5835 8.47256 28.5835 11.4648C28.5835 14.457 31.0087 16.8827 34.0003 16.8827Z" fill="white"/>
<path d="M20.5062 10.8358C23.4978 10.8358 25.923 8.41016 25.923 5.41792C25.923 2.42569 23.4978 0 20.5062 0C17.5145 0 15.0894 2.42569 15.0894 5.41792C15.0894 8.41016 17.5145 10.8358 20.5062 10.8358Z" fill="white"/>
<path d="M47.494 24.3808C50.4856 24.3808 52.9108 21.9551 52.9108 18.9628C52.9108 15.9706 50.4856 13.5449 47.494 13.5449C44.5023 13.5449 42.0771 15.9706 42.0771 18.9628C42.0771 21.9551 44.5023 24.3808 47.494 24.3808Z" fill="white"/>
<path d="M5.41682 44.0214C8.40844 44.0214 10.8336 41.5957 10.8336 38.6035C10.8336 35.6112 8.40844 33.1855 5.41682 33.1855C2.42519 33.1855 0 35.6112 0 38.6035C0 41.5957 2.42519 44.0214 5.41682 44.0214Z" fill="white"/>
<path d="M47.494 37.9726C50.4856 37.9726 52.9108 35.5469 52.9108 32.5546C52.9108 29.5624 50.4856 27.1367 47.494 27.1367C44.5023 27.1367 42.0771 29.5624 42.0771 32.5546C42.0771 35.5469 44.5023 37.9726 47.494 37.9726Z" fill="white"/>
<path d="M5.41682 30.4276C8.40844 30.4276 10.8336 28.002 10.8336 25.0097C10.8336 22.0175 8.40844 19.5918 5.41682 19.5918C2.42519 19.5918 0 22.0175 0 25.0097C0 28.002 2.42519 30.4276 5.41682 30.4276Z" fill="white"/>
<path d="M20.5066 40.7305C23.5052 40.7305 25.9235 43.1492 25.9235 46.1484V60.9993H15.1382V46.1484C15.1382 43.1492 17.5564 40.7305 20.555 40.7305H20.5066Z" fill="white"/>
<path d="M34.0003 33.2344C36.9989 33.2344 39.4171 35.6531 39.4171 38.6523V61.0496H28.6318V38.6523C28.6318 35.6531 31.0501 33.2344 34.0487 33.2344H34.0003Z" fill="white"/>
</g>
<defs>
<clipPath id="clip0_698_469">
<rect width="241" height="61" fill="white"/>
</clipPath>
</defs>
</svg>
