<svg width="40" height="40" viewBox="0 0 40 40" fill="none" xmlns="http://www.w3.org/2000/svg">
<path fill-rule="evenodd" clip-rule="evenodd" d="M20.5909 1.36548C20.4052 1.28101 20.2035 1.2373 19.9995 1.2373C19.7955 1.2373 19.5938 1.28101 19.4081 1.36548L11.9138 4.77691L19.9938 8.45691L28.0795 4.77405L20.5909 1.36548ZM10.5709 16.0283V7.30262L18.5709 10.9455V20.5883L11.4024 17.3283C11.1528 17.2148 10.9411 17.0319 10.7927 16.8014C10.6443 16.5709 10.5653 16.3025 10.5652 16.0283H10.5709ZM21.4281 35.2055V25.6626L29.0052 29.114V38.7569L21.8452 35.4969C21.6888 35.4258 21.5494 35.3271 21.4281 35.2055ZM31.8624 38.7626V29.114L39.8709 25.4683V34.1969C39.8709 34.4711 39.7919 34.7394 39.6434 34.97C39.495 35.2005 39.2834 35.3834 39.0338 35.4969L31.8624 38.7626ZM18.5652 25.6626V35.2169C18.4464 35.3333 18.3081 35.4281 18.1566 35.4969L10.9852 38.7626V29.114L18.5652 25.6626ZM8.12808 29.114V38.7569L0.970932 35.4969C0.721358 35.3834 0.509719 35.2005 0.361278 34.97C0.212837 34.7394 0.133865 34.4711 0.133789 34.1969V25.4712L8.13379 29.114H8.12808ZM21.4224 20.5941V10.9426L29.4309 7.29691V16.0283C29.4309 16.3025 29.3519 16.5709 29.2034 16.8014C29.055 17.0319 28.8434 17.2148 28.5938 17.3283L21.4224 20.5941ZM29.8452 19.5369C30.0309 19.4524 30.2326 19.4087 30.4366 19.4087C30.6407 19.4087 30.8423 19.4524 31.0281 19.5369L38.5138 22.9426L30.4281 26.6255L22.3566 22.9426L29.8481 19.5312L29.8452 19.5369ZM8.97093 19.5369C9.15666 19.4524 9.35833 19.4087 9.56236 19.4087C9.76639 19.4087 9.96806 19.4524 10.1538 19.5369L17.6395 22.9426L9.55665 26.6283L1.4795 22.9426L8.97093 19.5369Z" fill="#2324FA"/>
</svg>
