<svg width="19" height="19" viewBox="0 0 19 19" fill="none" xmlns="http://www.w3.org/2000/svg">
<path d="M5.70459 4.25075C5.70439 4.64857 5.54617 5.03003 5.26472 5.31119C4.98327 5.59235 4.60166 5.7502 4.20384 5.75C3.80602 5.7498 3.42456 5.59158 3.1434 5.31013C2.86224 5.02868 2.70439 4.64707 2.70459 4.24925C2.70479 3.85143 2.86301 3.46997 3.14446 3.18881C3.42591 2.90765 3.80752 2.7498 4.20534 2.75C4.60316 2.7502 4.98462 2.90843 5.26578 3.18987C5.54694 3.47132 5.70479 3.85293 5.70459 4.25075ZM5.74959 6.86075H2.74959V16.2507H5.74959V6.86075ZM10.4896 6.86075H7.50459V16.2507H10.4596V11.3233C10.4596 8.57825 14.0371 8.32325 14.0371 11.3233V16.2507H16.9996V10.3033C16.9996 5.67575 11.7046 5.84825 10.4596 8.12075L10.4896 6.86075Z" fill="white"/>
</svg>
