<svg width="39" height="44" viewBox="0 0 39 44" fill="none" xmlns="http://www.w3.org/2000/svg">
<path d="M25.0476 21.9488C27.2075 21.9488 28.9585 20.1992 28.9585 18.0408C28.9585 15.8825 27.2075 14.1328 25.0476 14.1328C22.8877 14.1328 21.1367 15.8825 21.1367 18.0408C21.1367 20.1992 22.8877 21.9488 25.0476 21.9488Z" fill="#2324FA"/>
<path d="M15.3054 27.3902C17.4654 27.3902 19.2163 25.6406 19.2163 23.4822C19.2163 21.3239 17.4654 19.5742 15.3054 19.5742C13.1455 19.5742 11.3945 21.3239 11.3945 23.4822C11.3945 25.6406 13.1455 27.3902 15.3054 27.3902Z" fill="#2324FA"/>
<path d="M15.3054 17.5856C17.4654 17.5856 19.2163 15.8359 19.2163 13.6775C19.2163 11.5192 17.4654 9.76953 15.3054 9.76953C13.1455 9.76953 11.3945 11.5192 11.3945 13.6775C11.3945 15.8359 13.1455 17.5856 15.3054 17.5856Z" fill="#2324FA"/>
<path d="M25.0476 12.1793C27.2075 12.1793 28.9585 10.4296 28.9585 8.27129C28.9585 6.11296 27.2075 4.36328 25.0476 4.36328C22.8877 4.36328 21.1367 6.11296 21.1367 8.27129C21.1367 10.4296 22.8877 12.1793 25.0476 12.1793Z" fill="#2324FA"/>
<path d="M15.3054 7.81602C17.4654 7.81602 19.2163 6.06634 19.2163 3.90801C19.2163 1.74968 17.4654 0 15.3054 0C13.1455 0 11.3945 1.74968 11.3945 3.90801C11.3945 6.06634 13.1455 7.81602 15.3054 7.81602Z" fill="#2324FA"/>
<path d="M34.7898 17.5856C36.9497 17.5856 38.7007 15.8359 38.7007 13.6775C38.7007 11.5192 36.9497 9.76953 34.7898 9.76953C32.6299 9.76953 30.8789 11.5192 30.8789 13.6775C30.8789 15.8359 32.6299 17.5856 34.7898 17.5856Z" fill="#2324FA"/>
<path d="M4.4109 31.7535C6.57083 31.7535 8.32179 30.0038 8.32179 27.8455C8.32179 25.6872 6.57083 23.9375 4.4109 23.9375C2.25097 23.9375 0.5 25.6872 0.5 27.8455C0.5 30.0038 2.25097 31.7535 4.4109 31.7535Z" fill="#2324FA"/>
<path d="M34.7898 27.3902C36.9497 27.3902 38.7007 25.6406 38.7007 23.4822C38.7007 21.3239 36.9497 19.5742 34.7898 19.5742C32.6299 19.5742 30.8789 21.3239 30.8789 23.4822C30.8789 25.6406 32.6299 27.3902 34.7898 27.3902Z" fill="#2324FA"/>
<path d="M4.4109 21.9488C6.57083 21.9488 8.32179 20.1992 8.32179 18.0408C8.32179 15.8825 6.57083 14.1328 4.4109 14.1328C2.25097 14.1328 0.5 15.8825 0.5 18.0408C0.5 20.1992 2.25097 21.9488 4.4109 21.9488Z" fill="#2324FA"/>
<path d="M15.3057 29.3789C17.4706 29.3789 19.2166 31.1236 19.2166 33.2869V43.9991H11.4297V33.2869C11.4297 31.1236 13.1756 29.3789 15.3406 29.3789H15.3057Z" fill="#2324FA"/>
<path d="M25.0479 23.9727C27.2128 23.9727 28.9588 25.7173 28.9588 27.8807V44.0361H21.1719V27.8807C21.1719 25.7173 22.9178 23.9727 25.0828 23.9727H25.0479Z" fill="#2324FA"/>
</svg>
