<svg width="39" height="44" viewBox="0 0 39 44" fill="none" xmlns="http://www.w3.org/2000/svg">
<path d="M24.5706 21.9479C26.7305 21.9479 28.4815 20.1982 28.4815 18.0398C28.4815 15.8815 26.7305 14.1318 24.5706 14.1318C22.4106 14.1318 20.6597 15.8815 20.6597 18.0398C20.6597 20.1982 22.4106 21.9479 24.5706 21.9479Z" fill="white"/>
<path d="M14.8279 27.3902C16.9878 27.3902 18.7388 25.6406 18.7388 23.4822C18.7388 21.3239 16.9878 19.5742 14.8279 19.5742C12.668 19.5742 10.917 21.3239 10.917 23.4822C10.917 25.6406 12.668 27.3902 14.8279 27.3902Z" fill="white"/>
<path d="M14.8279 17.5856C16.9878 17.5856 18.7388 15.8359 18.7388 13.6775C18.7388 11.5192 16.9878 9.76953 14.8279 9.76953C12.668 9.76953 10.917 11.5192 10.917 13.6775C10.917 15.8359 12.668 17.5856 14.8279 17.5856Z" fill="white"/>
<path d="M24.5706 12.1773C26.7305 12.1773 28.4815 10.4277 28.4815 8.26934C28.4815 6.111 26.7305 4.36133 24.5706 4.36133C22.4106 4.36133 20.6597 6.111 20.6597 8.26934C20.6597 10.4277 22.4106 12.1773 24.5706 12.1773Z" fill="white"/>
<path d="M14.8279 7.81602C16.9878 7.81602 18.7388 6.06634 18.7388 3.90801C18.7388 1.74968 16.9878 0 14.8279 0C12.668 0 10.917 1.74968 10.917 3.90801C10.917 6.06634 12.668 7.81602 14.8279 7.81602Z" fill="white"/>
<path d="M34.3128 17.5856C36.4727 17.5856 38.2237 15.8359 38.2237 13.6775C38.2237 11.5192 36.4727 9.76953 34.3128 9.76953C32.1528 9.76953 30.4019 11.5192 30.4019 13.6775C30.4019 15.8359 32.1528 17.5856 34.3128 17.5856Z" fill="white"/>
<path d="M3.93336 31.7525C6.09329 31.7525 7.84425 30.0029 7.84425 27.8445C7.84425 25.6862 6.09329 23.9365 3.93336 23.9365C1.77343 23.9365 0.0224609 25.6862 0.0224609 27.8445C0.0224609 30.0029 1.77343 31.7525 3.93336 31.7525Z" fill="white"/>
<path d="M34.3128 27.3902C36.4727 27.3902 38.2237 25.6406 38.2237 23.4822C38.2237 21.3239 36.4727 19.5742 34.3128 19.5742C32.1528 19.5742 30.4019 21.3239 30.4019 23.4822C30.4019 25.6406 32.1528 27.3902 34.3128 27.3902Z" fill="white"/>
<path d="M3.93336 21.9479C6.09329 21.9479 7.84425 20.1982 7.84425 18.0398C7.84425 15.8815 6.09329 14.1318 3.93336 14.1318C1.77343 14.1318 0.0224609 15.8815 0.0224609 18.0398C0.0224609 20.1982 1.77343 21.9479 3.93336 21.9479Z" fill="white"/>
<path d="M14.8281 29.3799C16.9931 29.3799 18.739 31.1245 18.739 33.2879V44H10.9521V33.2879C10.9521 31.1245 12.6981 29.3799 14.863 29.3799H14.8281Z" fill="white"/>
<path d="M24.5703 23.9717C26.7353 23.9717 28.4812 25.7163 28.4812 27.8797V44.0351H20.6943V27.8797C20.6943 25.7163 22.4403 23.9717 24.6052 23.9717H24.5703Z" fill="white"/>
</svg>
