<svg width="24" height="24" viewBox="0 0 24 24" fill="none" xmlns="http://www.w3.org/2000/svg">
<path d="M1 4H23V6H1V4ZM1 18H23V20H1V18ZM19.622 14.914L19.448 14.044H17.499L17.189 14.907L15.627 14.911C16.6317 12.5043 17.377 10.721 17.863 9.561C17.989 9.25767 18.2173 9.10633 18.548 9.107C18.802 9.109 19.217 9.109 19.793 9.107L21 14.912L19.622 14.914ZM17.938 12.852H19.194L18.724 10.672L17.938 12.852ZM7.872 9.106L9.442 9.108L7.015 14.914L5.425 14.913C4.88767 12.8423 4.493 11.3073 4.241 10.308C4.164 10.001 4.011 9.787 3.715 9.686C3.45233 9.59533 3.014 9.45567 2.4 9.267V9.107H4.909C5.343 9.107 5.596 9.317 5.678 9.747L6.298 13.036L7.872 9.106ZM11.599 9.108L10.359 14.913L8.864 14.911L10.104 9.106L11.599 9.108ZM14.631 9C15.077 9 15.641 9.138 15.965 9.267L15.703 10.471C15.41 10.353 14.928 10.194 14.523 10.201C13.933 10.21 13.569 10.457 13.569 10.694C13.569 11.078 14.201 11.272 14.853 11.693C15.596 12.173 15.693 12.603 15.685 13.071C15.674 14.042 14.853 15 13.12 15C12.329 14.988 12.044 14.922 11.4 14.694L11.672 13.438C12.328 13.712 12.607 13.799 13.167 13.799C13.682 13.799 14.123 13.592 14.127 13.231C14.129 12.974 13.972 12.847 13.395 12.529C12.818 12.211 12.009 11.773 12.02 10.889C12.033 9.759 13.108 9 14.631 9Z" fill="black"/>
</svg>
