<svg width="40" height="40" viewBox="0 0 40 40" fill="none" xmlns="http://www.w3.org/2000/svg">
<path d="M34.1673 20C33.4729 20 32.8829 19.7572 32.3973 19.2717C31.9118 18.7861 31.6684 18.1956 31.6673 17.5V7.5C31.6673 6.80556 31.9107 6.21556 32.3973 5.73C32.884 5.24445 33.474 5.00111 34.1673 5C34.8607 4.99889 35.4512 5.24223 35.939 5.73C36.4268 6.21778 36.6695 6.80778 36.6673 7.5V17.5C36.6673 18.1944 36.4245 18.785 35.939 19.2717C35.4534 19.7583 34.8629 20.0011 34.1673 20ZM16.6673 20C14.834 20 13.2645 19.3472 11.959 18.0417C10.6534 16.7361 10.0007 15.1667 10.0007 13.3333C10.0007 11.5 10.6534 9.93056 11.959 8.625C13.2645 7.31945 14.834 6.66667 16.6673 6.66667C18.5007 6.66667 20.0701 7.31945 21.3757 8.625C22.6812 9.93056 23.334 11.5 23.334 13.3333C23.334 15.1667 22.6812 16.7361 21.3757 18.0417C20.0701 19.3472 18.5007 20 16.6673 20ZM3.33398 33.3333V28.6667C3.33398 27.7222 3.5701 26.8544 4.04232 26.0633C4.51454 25.2722 5.16732 24.6678 6.00065 24.25C7.66732 23.4167 9.39676 22.7778 11.189 22.3333C12.9812 21.8889 14.8073 21.6667 16.6673 21.6667C18.5273 21.6667 20.354 21.8889 22.1473 22.3333C23.9407 22.7778 25.6695 23.4167 27.334 24.25C28.1673 24.6667 28.8201 25.2711 29.2923 26.0633C29.7645 26.8556 30.0007 27.7233 30.0007 28.6667V33.3333H3.33398Z" fill="#2324FA"/>
</svg>
