<svg width="20" height="20" viewBox="0 0 20 20" fill="none" xmlns="http://www.w3.org/2000/svg">
<path fill-rule="evenodd" clip-rule="evenodd" d="M9.99981 2.5C10.1158 2.5 10.2295 2.53228 10.3281 2.5932C10.4268 2.65413 10.5066 2.74132 10.5586 2.845L17.4336 16.595C17.4897 16.7069 17.5109 16.833 17.4945 16.9571C17.4781 17.0811 17.4249 17.1974 17.3417 17.2909C17.2584 17.3843 17.1491 17.4506 17.0277 17.4812C16.9064 17.5118 16.7787 17.5053 16.6611 17.4625L9.99981 15.04L3.33731 17.4625C3.21979 17.5049 3.09225 17.5112 2.97114 17.4804C2.85003 17.4497 2.74093 17.3833 2.65791 17.2899C2.57489 17.1966 2.52176 17.0804 2.50539 16.9566C2.48902 16.8327 2.51015 16.7067 2.56606 16.595L9.44106 2.845C9.49302 2.74132 9.5728 2.65413 9.67148 2.5932C9.77015 2.53228 9.88384 2.5 9.99981 2.5Z" fill="white"/>
</svg>
