<svg width="20" height="20" viewBox="0 0 20 20" fill="none" xmlns="http://www.w3.org/2000/svg">
<path d="M17.5005 1.87695C17.5005 1.71119 17.4346 1.55222 17.3174 1.43501C17.2002 1.3178 17.0413 1.25195 16.8755 1.25195C16.7097 1.25195 16.5508 1.3178 16.4335 1.43501C16.3163 1.55222 16.2505 1.71119 16.2505 1.87695V2.50195H15.6255C15.4597 2.50195 15.3008 2.5678 15.1835 2.68501C15.0663 2.80222 15.0005 2.96119 15.0005 3.12695C15.0005 3.29271 15.0663 3.45168 15.1835 3.56889C15.3008 3.68611 15.4597 3.75195 15.6255 3.75195H16.2505V4.37695C16.2505 4.54271 16.3163 4.70168 16.4335 4.81889C16.5508 4.93611 16.7097 5.00195 16.8755 5.00195C17.0413 5.00195 17.2002 4.93611 17.3174 4.81889C17.4346 4.70168 17.5005 4.54271 17.5005 4.37695V3.75195H18.1255C18.2913 3.75195 18.4502 3.68611 18.5674 3.56889C18.6846 3.45168 18.7505 3.29271 18.7505 3.12695C18.7505 2.96119 18.6846 2.80222 18.5674 2.68501C18.4502 2.5678 18.2913 2.50195 18.1255 2.50195H17.5005V1.87695ZM5.51549 2.40945C5.63799 1.8182 6.15549 1.25195 6.87549 1.25195C7.59549 1.25195 8.11299 1.8182 8.23674 2.40945C8.39121 3.17545 8.76667 3.87944 9.31674 4.43445C9.8716 4.98498 10.5756 5.36088 11.3417 5.5157C11.933 5.6382 12.4992 6.1557 12.4992 6.8782C12.4992 7.5982 11.933 8.1157 11.3417 8.2382C10.5756 8.39303 9.8716 8.76893 9.31674 9.31945C8.76667 9.87447 8.39121 10.5785 8.23674 11.3445C8.11424 11.9345 7.59674 12.502 6.87424 12.502C6.15424 12.502 5.63674 11.9357 5.51424 11.3445C5.35964 10.5779 4.98373 9.8734 4.43299 9.3182C3.87797 8.76813 3.17399 8.39268 2.40799 8.2382C1.81799 8.1157 1.25174 7.59945 1.25049 6.87945C1.24924 6.15695 1.81674 5.6382 2.40799 5.5157C3.17399 5.36123 3.87797 4.98577 4.43299 4.4357C4.98352 3.88084 5.35942 3.17685 5.51424 2.4107M13.7505 6.87695C13.7505 6.65695 13.7255 6.44862 13.6755 6.25195H14.3755C15.2043 6.25195 15.9991 6.58119 16.5852 7.16724C17.1713 7.7533 17.5005 8.54815 17.5005 9.37695V14.377C17.5005 15.2058 17.1713 16.0006 16.5852 16.5867C15.9991 17.1727 15.2043 17.502 14.3755 17.502H9.37549C8.54669 17.502 7.75183 17.1727 7.16578 16.5867C6.57973 16.0006 6.25049 15.2058 6.25049 14.377V13.677C6.66108 13.7776 7.0899 13.7776 7.50049 13.677V14.377C7.50049 14.8742 7.69803 15.3511 8.04966 15.7028C8.4013 16.0544 8.87821 16.252 9.37549 16.252H14.3755C14.8728 16.252 15.3497 16.0544 15.7013 15.7028C16.0529 15.3511 16.2505 14.8742 16.2505 14.377V9.37695C16.2505 8.87967 16.0529 8.40276 15.7013 8.05113C15.3497 7.6995 14.8728 7.50195 14.3755 7.50195H13.6755C13.7255 7.30529 13.7505 7.09695 13.7505 6.87695ZM10.0005 10.627C10.0005 10.4612 10.0663 10.3022 10.1835 10.185C10.3008 10.0678 10.4597 10.002 10.6255 10.002H13.7505C13.9163 10.002 14.0752 10.0678 14.1924 10.185C14.3096 10.3022 14.3755 10.4612 14.3755 10.627C14.3755 10.7927 14.3096 10.9517 14.1924 11.0689C14.0752 11.1861 13.9163 11.252 13.7505 11.252H10.6255C10.4597 11.252 10.3008 11.1861 10.1835 11.0689C10.0663 10.9517 10.0005 10.7927 10.0005 10.627ZM10.6255 12.502C10.4597 12.502 10.3008 12.5678 10.1835 12.685C10.0663 12.8022 10.0005 12.9612 10.0005 13.127C10.0005 13.2927 10.0663 13.4517 10.1835 13.5689C10.3008 13.6861 10.4597 13.752 10.6255 13.752H12.5005C12.6663 13.752 12.8252 13.6861 12.9424 13.5689C13.0596 13.4517 13.1255 13.2927 13.1255 13.127C13.1255 12.9612 13.0596 12.8022 12.9424 12.685C12.8252 12.5678 12.6663 12.502 12.5005 12.502H10.6255ZM3.12549 15.002C3.29125 15.002 3.45022 15.0678 3.56743 15.185C3.68464 15.3022 3.75049 15.4612 3.75049 15.627V16.252H4.37549C4.54125 16.252 4.70022 16.3178 4.81743 16.435C4.93464 16.5522 5.00049 16.7112 5.00049 16.877C5.00049 17.0427 4.93464 17.2017 4.81743 17.3189C4.70022 17.4361 4.54125 17.502 4.37549 17.502H3.75049V18.127C3.75049 18.2927 3.68464 18.4517 3.56743 18.5689C3.45022 18.6861 3.29125 18.752 3.12549 18.752C2.95973 18.752 2.80076 18.6861 2.68355 18.5689C2.56634 18.4517 2.50049 18.2927 2.50049 18.127V17.502H1.87549C1.70973 17.502 1.55076 17.4361 1.43355 17.3189C1.31634 17.2017 1.25049 17.0427 1.25049 16.877C1.25049 16.7112 1.31634 16.5522 1.43355 16.435C1.55076 16.3178 1.70973 16.252 1.87549 16.252H2.50049V15.627C2.50049 15.4612 2.56634 15.3022 2.68355 15.185C2.80076 15.0678 2.95973 15.002 3.12549 15.002Z" fill="white"/>
</svg>
