<svg width="26" height="20" viewBox="0 0 26 20" fill="none" xmlns="http://www.w3.org/2000/svg">
<g clip-path="url(#clip0_833_2934)">
<path d="M19.5634 7.49916H13.6259V9.68666C13.6259 11.2374 12.3642 12.4992 10.8134 12.4992C9.26261 12.4992 8.00089 11.2374 8.00089 9.68666V4.93666L5.46573 6.46009C4.71183 6.90931 4.25089 7.72572 4.25089 8.60072V10.4484L1.12589 12.2531C0.528235 12.5968 0.321203 13.3624 0.66886 13.9601L3.79386 19.3742C4.13761 19.9718 4.90323 20.1749 5.50089 19.8312L9.53995 17.4992H14.8759C16.2548 17.4992 17.3759 16.3781 17.3759 14.9992H18.0009C18.6923 14.9992 19.2509 14.4406 19.2509 13.7492V11.2492H19.5634C20.0829 11.2492 20.5009 10.8312 20.5009 10.3117V8.43666C20.5009 7.91712 20.0829 7.49916 19.5634 7.49916ZM25.3329 6.03822L22.2079 0.624155C21.8642 0.0264987 21.0985 -0.176626 20.5009 0.167124L16.4618 2.49916H12.4696C12.0009 2.49916 11.5439 2.63197 11.1454 2.87806L9.83683 3.69447C9.46964 3.92103 9.25089 4.32337 9.25089 4.75306V9.68666C9.25089 10.5499 9.95011 11.2492 10.8134 11.2492C11.6767 11.2492 12.3759 10.5499 12.3759 9.68666V6.24916H19.5634C20.7704 6.24916 21.7509 7.22962 21.7509 8.43666V9.54994L24.8759 7.74525C25.4735 7.39759 25.6767 6.63587 25.3329 6.03822Z" fill="white"/>
</g>
<defs>
<clipPath id="clip0_833_2934">
<rect width="25" height="20" fill="white" transform="translate(0.5)"/>
</clipPath>
</defs>
</svg>
