<svg width="24" height="24" viewBox="0 0 24 24" fill="none" xmlns="http://www.w3.org/2000/svg">
<path d="M12 14.2C11.25 14.2 10.6127 13.9377 10.088 13.413C9.56333 12.8883 9.30067 12.2507 9.3 11.5C9.29933 10.7493 9.562 10.112 10.088 9.588C10.614 9.064 11.2513 8.80133 12 8.8C12.7487 8.79867 13.3863 9.06133 13.913 9.588C14.4397 10.1147 14.702 10.752 14.7 11.5C14.698 12.248 14.4357 12.8857 13.913 13.413C13.3903 13.9403 12.7527 14.2027 12 14.2ZM12 19C9.56667 19 7.35 18.321 5.35 16.963C3.35 15.605 1.9 13.784 1 11.5C1.9 9.21667 3.35 7.396 5.35 6.038C7.35 4.68 9.56667 4.00067 12 4C14.35 4 16.496 4.63333 18.438 5.9C20.38 7.16667 21.834 8.86667 22.8 11H20.525C19.6583 9.45 18.4667 8.22933 16.95 7.338C15.4333 6.44667 13.7833 6.00067 12 6C10.1167 6 8.38767 6.496 6.813 7.488C5.23833 8.48 4.034 9.81733 3.2 11.5C4.03333 13.1833 5.23767 14.521 6.813 15.513C8.38833 16.505 10.1173 17.0007 12 17C12.3333 17 12.6667 16.9833 13 16.95C13.3333 16.9167 13.6667 16.8667 14 16.8V18.825C13.6667 18.875 13.3333 18.9167 13 18.95C12.6667 18.9833 12.3333 19 12 19ZM12 16C12.3667 16 12.721 15.9583 13.063 15.875C13.405 15.7917 13.7257 15.675 14.025 15.525C14.1083 14.6917 14.371 13.9417 14.813 13.275C15.255 12.6083 15.8173 12.075 16.5 11.675V11.5C16.5 10.25 16.0627 9.18767 15.188 8.313C14.3133 7.43833 13.2507 7.00067 12 7C10.7493 6.99933 9.687 7.437 8.813 8.313C7.939 9.189 7.50133 10.2513 7.5 11.5C7.49867 12.7487 7.93633 13.8113 8.813 14.688C9.68967 15.5647 10.752 16.002 12 16ZM17 21C16.7167 21 16.4793 20.904 16.288 20.712C16.0967 20.52 16.0007 20.2827 16 20V17C16 16.7167 16.096 16.4793 16.288 16.288C16.48 16.0967 16.7173 16.0007 17 16V15C17 14.45 17.196 13.9793 17.588 13.588C17.98 13.1967 18.4507 13.0007 19 13C19.5493 12.9993 20.0203 13.1953 20.413 13.588C20.8057 13.9807 21.0013 14.4513 21 15V16C21.2833 16 21.521 16.096 21.713 16.288C21.905 16.48 22.0007 16.7173 22 17V20C22 20.2833 21.904 20.521 21.712 20.713C21.52 20.905 21.2827 21.0007 21 21H17ZM18 16H20V15C20 14.7167 19.904 14.4793 19.712 14.288C19.52 14.0967 19.2827 14.0007 19 14C18.7173 13.9993 18.48 14.0953 18.288 14.288C18.096 14.4807 18 14.718 18 15V16Z" fill="white"/>
</svg>
