<svg width="40" height="40" viewBox="0 0 40 40" fill="none" xmlns="http://www.w3.org/2000/svg">
<g clip-path="url(#clip0_641_851)">
<path d="M32.6455 18.2846C32.6455 18.2846 33.173 20.8684 33.2918 21.4096H30.973L32.0843 18.3884C32.0705 18.4096 32.313 17.7559 32.4518 17.3534L32.6455 18.2846ZM39.9993 7.77711V32.2221C39.9983 33.106 39.6468 33.9533 39.0218 34.5783C38.3968 35.2033 37.5494 35.5549 36.6655 35.5559H3.3318C2.44794 35.5549 1.60056 35.2033 0.975576 34.5783C0.350591 33.9533 -0.00096058 33.106 -0.00195312 32.2221V7.77711C-0.00096058 6.89325 0.350591 6.04587 0.975576 5.42089C1.60056 4.7959 2.44794 4.44435 3.3318 4.44336H36.6655C37.5494 4.44435 38.3968 4.7959 39.0218 5.42089C39.6468 6.04587 39.9983 6.89325 39.9993 7.77711ZM10.5893 25.2221L14.978 14.4446H12.0268L9.29805 21.8059L8.9993 20.3134L8.0268 15.3546C7.8668 14.6671 7.3743 14.4721 6.76305 14.4446H2.27055L2.2218 14.6596C3.25055 14.9123 4.23741 15.3123 5.1518 15.8471L7.63805 25.2221H10.5893ZM17.1455 25.2359L18.8955 14.4446H16.1043L14.3618 25.2359H17.1455ZM26.8605 21.7084C26.8743 20.4796 26.1243 19.5421 24.5205 18.7709C23.5418 18.2771 22.9443 17.9446 22.9443 17.4371C22.958 16.9784 23.4518 16.5059 24.548 16.5059C25.2622 16.4846 25.9719 16.6248 26.6243 16.9159L26.8743 17.0334L27.2568 14.6996C26.4584 14.3954 25.6111 14.2399 24.7568 14.2409C21.9993 14.2409 20.0618 15.7134 20.048 17.8096C20.0268 19.3584 21.4368 20.2196 22.493 20.7396C23.5693 21.2671 23.938 21.6146 23.938 22.0796C23.9243 22.8021 23.063 23.1346 22.2643 23.1346C21.153 23.1346 20.5555 22.9609 19.6455 22.5584L19.278 22.3846L18.8893 24.8084C19.5418 25.1071 20.7505 25.3709 22.0005 25.3846C24.9305 25.3909 26.8405 23.9396 26.8618 21.7046L26.8605 21.7084ZM36.6655 25.2359L34.4155 14.4446H32.2555C31.5893 14.4446 31.0818 14.6396 30.7968 15.3409L26.6505 25.2371H29.5805C29.5805 25.2371 30.0593 23.9034 30.1643 23.6196H33.748C33.8318 24.0021 34.0818 25.2371 34.0818 25.2371L36.6655 25.2359Z" fill="#2324FA"/>
</g>
<defs>
<clipPath id="clip0_641_851">
<rect width="40" height="40" fill="white"/>
</clipPath>
</defs>
</svg>
